<?xml version="1.0" encoding="iso-8859-1"?>
<!-- Generator: Adobe Illustrator 19.0.0, SVG Export Plug-In . SVG Version: 6.00 Build 0)  -->
<svg version="1.1" id="Capa_1" xmlns="http://www.w3.org/2000/svg" xmlns:xlink="http://www.w3.org/1999/xlink" x="0px" y="0px"
	 viewBox="0 0 512 512" style="enable-background:new 0 0 512 512;" xml:space="preserve">
<path style="fill:#CD9829;" d="M185.379,145.655h132.414v44.138H185.379V145.655z"/>
<path style="fill:#FED856;" d="M211.862,101.517h132.414v44.138H211.862V101.517z"/>
<path style="fill:#CD9829;" d="M194.207,57.379h132.414v44.138H194.207V57.379z"/>
<g>
	<path style="fill:#FED856;" d="M220.69,13.241h132.414v44.138H220.69V13.241z"/>
	<path style="fill:#FED856;" d="M167.724,189.793h132.414v44.138H167.724V189.793z"/>
</g>
<path style="fill:#CD9829;" d="M167.724,233.931h132.414v44.138H167.724V233.931z"/>
<path style="fill:#FED856;" d="M167.724,278.069h132.414v44.138H167.724V278.069z"/>
<path style="fill:#CD9829;" d="M167.724,322.207h132.414v44.138H167.724V322.207z"/>
<path style="fill:#FED856;" d="M167.724,366.345h132.414v44.138H167.724V366.345z"/>
<path style="fill:#CD9829;" d="M167.724,410.483h132.414v44.138H167.724V410.483z"/>
<path style="fill:#FED856;" d="M167.724,454.621h132.414v44.138H167.724V454.621z"/>
<path style="fill:#CD9829;" d="M0,454.621h123.586v44.138H0V454.621z"/>
<path style="fill:#FED856;" d="M0,410.483h123.586v44.138H0V410.483z"/>
<path style="fill:#CD9829;" d="M0,366.345h123.586v44.138H0V366.345z"/>
<path style="fill:#FED856;" d="M0,322.207h123.586v44.138H0V322.207z"/>
<path style="fill:#CD9829;" d="M0,278.069h123.586v44.138H0V278.069z"/>
<path style="fill:#FED856;" d="M0,233.931h123.586v44.138H0V233.931z"/>
<path style="fill:#CD9829;" d="M0,189.793h123.586v44.138H0V189.793z"/>
<path style="fill:#FED856;" d="M0,145.655h123.586v44.138H0V145.655z"/>
<path style="fill:#CD9829;" d="M0,101.517h123.586v44.138H0V101.517z"/>
<path style="fill:#FED856;" d="M17.655,57.379h123.586v44.138H17.655V57.379z"/>
<g>
	<path style="fill:#CD9829;" d="M35.31,13.241h123.586v44.138H35.31V13.241z"/>
	<path style="fill:#CD9829;" d="M512,163.31h-17.655v-17.655H476.69v17.655h-17.655v17.655h17.655v17.655h17.655v-17.655H512V163.31
		z"/>
	<path style="fill:#CD9829;" d="M467.862,57.379V39.724h-17.655V22.069h-17.655v17.655h-17.655v17.655h17.655v17.655h17.655V57.379
		H467.862z"/>
</g>
<circle style="fill:#EEB83B;" cx="370.759" cy="357.517" r="141.241"/>
<circle style="fill:#FED856;" cx="370.759" cy="357.517" r="105.931"/>
<g>
	<path style="fill:#CD9829;" d="M397.241,339.862v-1.289c-0.044-10.973-7.186-20.648-17.655-23.914v-10.108h-17.655v10.108
		c-13.241,4.122-20.63,18.194-16.516,31.426c2.039,6.541,6.656,11.97,12.791,15.025l17.205,8.607
		c3.725,1.863,5.235,6.391,3.372,10.116c-1.28,2.551-3.884,4.167-6.735,4.167h-2.578c-4.158-0.009-7.53-3.381-7.539-7.539v-1.289
		h-17.655v1.289c0.044,10.973,7.186,20.648,17.655,23.914v10.108h17.655v-10.108c13.241-4.122,20.63-18.194,16.516-31.426
		c-2.039-6.541-6.656-11.97-12.791-15.025l-17.205-8.607c-3.725-1.863-5.235-6.391-3.372-10.116c1.28-2.551,3.884-4.167,6.735-4.167
		h2.578c4.158,0.009,7.53,3.381,7.539,7.539v1.289H397.241z"/>
	<path style="fill:#CD9829;" d="M308.966,348.69h17.655v17.655h-17.655V348.69z"/>
	<path style="fill:#CD9829;" d="M414.897,348.69h17.655v17.655h-17.655V348.69z"/>
</g>
<g>
</g>
<g>
</g>
<g>
</g>
<g>
</g>
<g>
</g>
<g>
</g>
<g>
</g>
<g>
</g>
<g>
</g>
<g>
</g>
<g>
</g>
<g>
</g>
<g>
</g>
<g>
</g>
<g>
</g>
</svg>
